HIERARCHY
ROOT Root
{
  OFFSET 0.506869 12.0067 -25.1643
  CHANNELS 6 Xposition Yposition Zposition Zrotation Xrotation Yrotation
  JOINT Spine
  {
    OFFSET 5.3114 0 0
    CHANNELS 3 Zrotation Xrotation Yrotation
    JOINT Spine1
    {
      OFFSET 2.79004 0 0
      CHANNELS 3 Zrotation Xrotation Yrotation
      JOINT Neck
      {
        OFFSET 1.43377 0 0
        CHANNELS 3 Zrotation Xrotation Yrotation
        JOINT Head
        {
          OFFSET 1.86043 0 0
          CHANNELS 3 Zrotation Xrotation Yrotation
          End Site
          {
            OFFSET 0 0 0
          }
        }
      }
      JOINT LeftArm
      {
        OFFSET 0.0387506 0 2.55754
        CHANNELS 3 Zrotation Xrotation Yrotation
        JOINT LeftForeArm
        {
          OFFSET 4.24845 0 0
          CHANNELS 3 Zrotation Xrotation Yrotation
          JOINT LeftHand
          {
            OFFSET 4.01008 0 0
            CHANNELS 3 Zrotation Xrotation Yrotation
            End Site
            {
              OFFSET 0 0 0
            }
          }
        }
      }
      JOINT RightArm
      {
        OFFSET 0.0387506 0 -2.55754
        CHANNELS 3 Zrotation Xrotation Yrotation
        JOINT RightForeArm
        {
          OFFSET -4.24845 0 0
          CHANNELS 3 Zrotation Xrotation Yrotation
          JOINT RightHand
          {
            OFFSET -4.01009 0 0
            CHANNELS 3 Zrotation Xrotation Yrotation
            End Site
            {
              OFFSET 0 0 0
            }
          }
        }
      }
    }
  }
  JOINT LeftUpLeg
  {
    OFFSET -1.23318 0 2.05692
    CHANNELS 3 Zrotation Xrotation Yrotation
    JOINT LeftLeg
    {
      OFFSET 5.46397 0 0
      CHANNELS 3 Zrotation Xrotation Yrotation
      JOINT LeftFoot
      {
        OFFSET 4.68898 0 0
        CHANNELS 3 Zrotation Xrotation Yrotation
        End Site
        {
          OFFSET 0 0 0
        }
      }
    }
  }
  JOINT RightUpLeg
  {
    OFFSET -1.24454 0 -2.05007
    CHANNELS 3 Zrotation Xrotation Yrotation
    JOINT RightLeg
    {
      OFFSET -5.46397 0 0
      CHANNELS 3 Zrotation Xrotation Yrotation
      JOINT RightFoot
      {
        OFFSET -4.68901 0 0
        CHANNELS 3 Zrotation Xrotation Yrotation
        End Site
        {
          OFFSET 0 0 0
        }
      }
    }
  }
}
MOTION
Frames:	17
Frame Time:	0.00833333
0.0102208 12.0274 6.63711 -121.133 86.5638 -146.038 4.53183 -8.39749 0.560871 -1.97541 -2.49327 5.51639 -0.141337 -1.60821 -10.6233 2.58114 -0.469533 5.59867 -1.08806 -22.0823 -168.45 33.5998 1.13147 19.7464 0.942666 6.6748 174.397 -174.821 3.94908 -169.057 15.6794 -0.928693 9.26276 3.52627 23.6361 173.717 21.4143 -8.17149 176.969 -20.6788 0.344129 -0.765547 -1.33118 4.34399 -177.696 143.182 -3.23505 -178.907 -37.8782 0.599128 -0.642006 2.00696 -4.88757 -178.721 
-0.00167835 12.0615 6.80526 -117.448 86.5082 -149.909 4.59593 -8.57803 0.807116 -2.00958 -2.55119 5.58972 -0.00483773 -1.54711 -10.699 2.72818 -0.298233 5.49418 -0.755815 -21.7801 -169.008 33.5774 1.12675 19.7336 0.950494 6.73014 174.397 -174.603 3.95838 -169.1 15.8845 -0.922625 9.38443 3.44119 23.127 173.75 20.0328 -8.07203 177.08 -24.1279 0.367393 -0.736916 -3.47498 4.86668 -177.378 144.15 -2.82502 -179.125 -38.1731 0.603685 -0.634319 2.4663 -4.80074 -178.682 
-0.0136823 12.1012 6.97626 -111.662 86.2951 -155.67 4.68518 -8.92919 0.751937 -1.96447 -2.65182 5.76792 0.143728 -1.47654 -10.8235 2.80373 -0.0951809 5.5153 -0.467002 -21.4793 -169.583 33.5174 1.11421 19.6994 0.962138 6.81236 174.396 -174.343 3.5099 -169.14 16.3106 -0.910244 9.63719 3.27714 22.1345 173.813 18.6526 -8.16595 177.079 -27.37 0.379048 -0.70786 -6.02034 5.55085 -176.98 145.25 -2.60653 -179.118 -38.5381 0.611418 -0.627893 3.25298 -4.93798 -178.622 
-0.026496 12.1426 7.14643 -106.515 86.0425 -160.766 4.78308 -9.26402 0.638107 -1.90032 -2.74605 5.95193 0.295129 -1.42054 -10.951 2.82964 0.078789 5.59584 -0.189529 -21.2589 -170.118 33.426 1.09531 19.6473 0.972594 6.88623 174.396 -174.1 2.87649 -169.188 16.7934 -0.896002 9.92372 3.08821 20.9735 173.882 17.2205 -8.26729 177.079 -30.5334 0.384181 -0.675564 -8.61186 6.22838 -176.557 146.398 -2.51261 -179.123 -38.8203 0.619174 -0.623445 4.12865 -5.19656 -178.55 
-0.0408244 12.182 7.3121 -103.577 85.9118 -163.814 4.8786 -9.3955 0.709198 -1.8785 -2.78493 6.04265 0.439756 -1.40306 -11.0357 2.82885 0.16295 5.66957 0.104769 -21.1986 -170.56 33.3092 1.0715 19.5806 0.976856 6.91649 174.396 -173.936 2.33105 -169.255 17.1692 -0.884349 10.1467 2.9256 19.9593 173.94 15.6834 -8.19004 177.188 -33.7467 0.38788 -0.637216 -10.8869 6.73163 -176.165 147.514 -2.4762 -179.374 -38.8669 0.623798 -0.621689 4.85456 -5.4738 -178.476 
-0.0579442 12.2197 7.47166 -103.197 85.984 -164.554 4.95776 -9.24127 1.06597 -1.91822 -2.7466 6.00722 0.590091 -1.43956 -11.0612 2.77128 0.122922 5.73099 0.429286 -21.3629 -170.882 33.1694 1.04299 19.5008 0.963674 6.8242 174.397 -173.878 1.93106 -169.354 17.3862 -0.876786 10.2755 2.79152 19.1129 173.985 13.9523 -7.87198 177.469 -37.1194 0.388045 -0.590108 -12.9442 6.97511 -175.79 148.577 -2.52411 179.987 -38.5593 0.624268 -0.62369 5.33994 -5.78451 -178.404 
-0.0771166 12.2572 7.62728 -104.29 86.1767 -163.958 5.02544 -8.91146 1.56584 -1.98581 -2.6601 5.90065 0.746114 -1.51421 -11.0534 2.65713 -0.00280944 5.81135 0.76126 -21.6965 -171.119 33.003 1.00904 19.4059 0.939036 6.65134 174.4 -173.891 1.5359 -169.474 17.5347 -0.870835 10.3636 2.66204 18.2872 174.026 12.0756 -7.41605 177.852 -40.558 0.383113 -0.536393 -14.9066 7.06205 -175.411 149.626 -2.67671 179.113 -38.0048 0.622324 -0.628775 5.72171 -6.16939 -178.329 
-0.0960229 12.2928 7.78094 -105.785 86.4186 -162.976 5.10321 -8.50809 2.08811 -2.06386 -2.55294 5.75555 0.879353 -1.60405 -11.0296 2.55538 -0.16561 5.89954 1.0748 -22.1005 -171.31 32.8073 0.969661 19.2942 0.923759 6.54406 174.402 -173.942 1.12153 -169.598 17.6632 -0.86498 10.4398 2.54676 17.5454 174.061 10.2077 -6.88421 178.248 -43.8857 0.378982 -0.480546 -16.4449 7.10847 -175.082 150.67 -2.85752 178.205 -37.3899 0.618967 -0.635052 6.10205 -6.56453 -178.244 
-0.112345 12.3246 7.93462 -106.374 86.6401 -162.795 5.21883 -8.13372 2.51301 -2.13531 -2.45266 5.6045 0.961249 -1.68611 -11.0068 2.53466 -0.31688 5.98438 1.34507 -22.4755 -171.493 32.5798 0.924836 19.1639 0.938635 6.64849 174.4 -173.996 0.663956 -169.705 17.8203 -0.857708 10.5329 2.45506 16.9508 174.089 8.50706 -6.33886 178.57 -46.9259 0.38155 -0.427042 -17.2325 7.23029 -174.856 151.725 -2.99061 177.467 -36.9011 0.615193 -0.640628 6.58291 -6.90606 -178.147 
-0.125099 12.3518 8.08852 -105.202 86.8315 -164.22 5.41193 -7.80453 2.79782 -2.20977 -2.36377 5.44841 0.966546 -1.75877 -10.9844 2.62478 -0.456453 6.0641 1.55529 -22.81 -171.671 32.3019 0.871016 19.0045 0.997193 7.05918 174.393 -174.035 0.150163 -169.793 18.0182 -0.848632 10.6502 2.39031 16.5287 174.108 7.05652 -5.77989 178.772 -49.631 0.392514 -0.375955 -17.0518 7.4808 -174.75 152.817 -3.05821 176.97 -36.603 0.611063 -0.645116 7.23525 -7.19529 -178.023 
-0.135645 12.3754 8.2417 -102.898 87.0227 -166.695 5.65885 -7.46986 3.01037 -2.29142 -2.2725 5.27252 0.916404 -1.83279 -10.9549 2.78538 -0.605975 6.14428 1.72273 -23.1521 -171.827 31.9807 0.809313 18.8202 1.08587 7.67964 174.381 -174.079 -0.404826 -169.87 18.2313 -0.838556 10.7765 2.34658 16.2425 174.12 5.76007 -5.17986 178.908 -52.0954 0.408688 -0.325272 -16.1196 7.79097 -174.736 153.933 -3.10032 176.601 -36.3912 0.606114 -0.649485 7.99032 -7.46014 -177.881 
-0.145173 12.3968 8.39441 -100.239 87.2086 -169.496 5.8966 -7.13205 3.19719 -2.35548 -2.17903 5.08581 0.851756 -1.90371 -10.9256 2.97943 -0.749607 6.2247 1.8739 -23.4914 -171.966 31.6522 0.746758 18.6318 1.18478 8.36951 174.368 -174.157 -0.982869 -169.937 18.4512 -0.827752 10.9067 2.31919 16.0628 174.127 4.51039 -4.56037 179.042 -54.3553 0.428641 -0.276335 -14.7617 8.09319 -174.794 155.032 -3.12816 176.283 -36.1984 0.600557 -0.653881 8.73984 -7.67665 -177.741 
-0.154875 12.4175 8.54693 -98.2172 87.3914 -171.687 6.06114 -6.7934 3.40466 -2.37726 -2.08357 4.89728 0.813493 -1.96709 -10.9035 3.16984 -0.871522 6.30514 2.03522 -23.8171 -172.098 31.3527 0.690448 18.4599 1.2738 8.98844 174.355 -174.3 -1.5658 -169.992 18.6693 -0.816491 11.036 2.30357 15.9603 174.132 3.19776 -3.94292 179.235 -56.4468 0.450941 -0.230484 -13.3043 8.31981 -174.908 156.074 -3.15276 175.941 -35.9571 0.594602 -0.658448 9.37489 -7.82092 -177.625 
-0.165033 12.4381 8.69931 -97.461 87.576 -172.672 6.12875 -6.45487 3.66371 -2.33314 -1.98575 4.7025 0.786096 -2.01929 -10.8863 3.37427 -0.966946 6.38212 2.19233 -24.1331 -172.218 31.0947 0.642882 18.3116 1.35122 9.52488 174.342 -174.543 -2.11289 -170.047 18.8758 -0.805455 11.1583 2.30822 15.9909 174.13 1.78741 -3.32047 179.532 -58.3858 0.47653 -0.187166 -11.7035 8.48324 -175.094 157.035 -3.15907 175.544 -35.6251 0.587972 -0.66333 9.83049 -7.85226 -177.549 
-0.175024 12.4576 8.85141 -97.5486 87.7636 -172.836 6.13523 -6.11513 3.94339 -2.24186 -1.88557 4.49897 0.756534 -2.06351 -10.8718 3.60319 -1.04452 6.45688 2.33881 -24.4429 -172.324 30.8581 0.600117 18.1753 1.42652 10.0451 174.329 -174.861 -2.64573 -170.097 19.0777 -0.794297 11.2779 2.33232 16.1491 174.124 0.336239 -2.68574 179.891 -60.151 0.505728 -0.145967 -9.82804 8.60935 -175.353 157.942 -3.14717 175.135 -35.2466 0.580666 -0.668413 10.1758 -7.79491 -177.497 
-0.184681 12.4757 9.00322 -97.9921 87.9552 -172.625 6.10589 -5.77308 4.19729 -2.14237 -1.78389 4.2985 0.769387 -2.10547 -10.8666 3.80864 -1.10854 6.53628 2.5127 -24.7353 -172.426 30.6299 0.559623 18.0438 1.49626 10.5253 174.317 -175.189 -3.23954 -170.121 19.2922 -0.781749 11.4048 2.3573 16.3129 174.117 -1.12729 -2.05991 -179.758 -61.7225 0.53618 -0.108448 -7.87564 8.65048 -175.65 158.828 -3.15086 174.752 -34.8831 0.573308 -0.673462 10.5033 -7.72237 -177.448 
-0.193838 12.4917 9.15473 -98.1251 88.1514 -172.665 6.06712 -5.42764 4.37911 -2.0737 -1.68154 4.11291 0.869219 -2.15089 -10.8776 3.94274 -1.16329 6.62718 2.75202 -24.9994 -172.533 30.3974 0.518849 17.9096 1.55693 10.9418 174.306 -175.46 -3.96941 -170.094 19.5363 -0.766547 11.5493 2.36453 16.3602 174.115 -2.57121 -1.46422 -179.482 -63.0801 0.565531 -0.0761667 -6.04545 8.55899 -175.946 159.725 -3.20385 174.431 -34.5964 0.566526 -0.67824 10.9055 -7.7081 -177.38 
